<svg xmlns="http://www.w3.org/2000/svg" xmlns:xlink="http://www.w3.org/1999/xlink" version="1.1" x="0px" y="0px" viewBox="0 0 100 125" style="enable-background:new 0 0 100 100;" xml:space="preserve" fill="#f64953"><path d="M35.74,66.16c1.204,1.435,1.662,3.385,1.29,5.492C36.219,76.256,31.825,80,27.236,80  c-2.04,0-3.808-0.768-4.977-2.16c-1.204-1.435-1.662-3.385-1.29-5.492C21.781,67.744,26.175,64,30.764,64  C32.804,64,34.571,64.768,35.74,66.16z M14,80H9c-1.104,0-2,0.896-2,2s0.896,2,2,2h5c1.104,0,2-0.896,2-2S15.104,80,14,80z M57,80  h-9c-1.104,0-2,0.896-2,2s0.896,2,2,2h9c1.104,0,2-0.896,2-2S58.104,80,57,80z M73.764,64c-4.589,0-8.982,3.744-9.794,8.348  c-0.372,2.107,0.086,4.058,1.29,5.492c1.169,1.393,2.937,2.16,4.977,2.16c4.589,0,8.982-3.744,9.794-8.348  c0.372-2.107-0.086-4.058-1.29-5.492C77.571,64.768,75.804,64,73.764,64z M93.618,56.737l-1.252,11.891  C92.044,71.69,89.479,74,86.399,74h-2.847c0.169-0.541,0.318-1.089,0.417-1.653c0.581-3.291-0.188-6.402-2.165-8.758  C79.862,61.274,77.006,60,73.764,60c-6.549,0-12.581,5.119-13.733,11.653c-0.141,0.796-0.198,1.58-0.183,2.347H54H40.553  c0.169-0.541,0.318-1.089,0.417-1.653c0.581-3.291-0.188-6.402-2.165-8.758C36.862,61.274,34.006,60,30.764,60  c-6.549,0-12.581,5.119-13.733,11.653c-0.141,0.796-0.198,1.58-0.183,2.347h-4.379c-1.704,0-3.333-0.729-4.47-1.998  s-1.682-2.97-1.494-4.664L7.765,56H36c1.104,0,2-0.896,2-2s-0.896-2-2-2H8.209l2.223-20H22c1.104,0,2-0.896,2-2s-0.896-2-2-2H10.877  l0.74-6.662C11.955,18.295,14.52,16,17.58,16h37.951c1.704,0,3.333,0.729,4.47,1.998s1.682,2.97,1.494,4.664L60.457,32h10.966  c2.842,0,5.558,1.215,7.452,3.332l12.25,13.69C93.004,51.124,93.913,53.936,93.618,56.737z M30,42c0-1.104-0.896-2-2-2H14  c-1.104,0-2,0.896-2,2s0.896,2,2,2h14C29.104,44,30,43.104,30,42z M42,42c0-1.104-0.896-2-2-2h-4c-1.104,0-2,0.896-2,2s0.896,2,2,2  h4C41.104,44,42,43.104,42,42z M46,30c0-1.104-0.896-2-2-2H30c-1.104,0-2,0.896-2,2s0.896,2,2,2h14C45.104,32,46,31.104,46,30z   M83.475,52.648l-11-12C72.096,40.235,71.561,40,71,40h-5c-1.04,0-1.906,0.797-1.993,1.834l-1,12  c-0.046,0.558,0.143,1.108,0.521,1.521C63.907,55.766,64.44,56,65,56h17c0.793,0,1.512-0.469,1.831-1.194  C84.15,54.079,84.01,53.233,83.475,52.648z"/></svg>