<svg xmlns:dc="http://purl.org/dc/elements/1.1/" xmlns:cc="http://creativecommons.org/ns#" xmlns:rdf="http://www.w3.org/1999/02/22-rdf-syntax-ns#" xmlns:svg="http://www.w3.org/2000/svg" xmlns="http://www.w3.org/2000/svg" xmlns:sodipodi="http://sodipodi.sourceforge.net/DTD/sodipodi-0.dtd" xmlns:inkscape="http://www.inkscape.org/namespaces/inkscape" viewBox="0 0 8.4666665 10.583333625" version="1.1" x="0px" y="0px"><g transform="translate(0,-288.53332)"><path style="color:#f64953;font-style:normal;font-variant:normal;font-weight:normal;font-stretch:normal;font-size:medium;line-height:normal;font-family:sans-serif;font-variant-ligatures:normal;font-variant-position:normal;font-variant-caps:normal;font-variant-numeric:normal;font-variant-alternates:normal;font-feature-settings:normal;text-indent:0;text-align:start;text-decoration:none;text-decoration-line:none;text-decoration-style:solid;text-decoration-color:#f64953;letter-spacing:normal;word-spacing:normal;text-transform:none;writing-mode:lr-tb;direction:ltr;text-orientation:mixed;dominant-baseline:auto;baseline-shift:baseline;text-anchor:start;white-space:normal;shape-padding:0;clip-rule:nonzero;display:inline;overflow:visible;visibility:visible;opacity:1;isolation:auto;mix-blend-mode:normal;color-interpolation:sRGB;color-interpolation-filters:linearRGB;solid-color:#f64953;solid-opacity:1;vector-effect:none;fill:#f64953;fill-opacity:1;fill-rule:nonzero;stroke:none;stroke-width:0.5291667;stroke-linecap:round;stroke-linejoin:miter;stroke-miterlimit:4;stroke-dasharray:none;stroke-dashoffset:0;stroke-opacity:1;paint-order:markers fill stroke;color-rendering:auto;image-rendering:auto;shape-rendering:auto;text-rendering:auto;enable-background:accumulate" d="m 0.5291664,296.47082 h 7.4083339 v -7.40834 H 0.5291664 Z m 0.529684,-6.87917 h 6.349483 v 6.34948 h -6.349483 z m 4.431254,1.82986 c -0.7274911,0 -1.323948,0.59698 -1.3239501,1.32447 2.1e-6,0.7275 0.596459,1.3224 1.3239501,1.3224 0.08554,0 0.1689989,-0.009 0.2501138,-0.0248 l 0.3415811,0.61444 0.4630211,-0.2558 -0.312642,-0.56379 c 0.349645,-0.23853 0.5803239,-0.63946 0.580326,-1.09244 -3.2e-6,-0.72749 -0.594909,-1.32447 -1.3224,-1.32447 z m -3.902088,0.0217 v 2.64635 h 0.529167 v -1.05834 h 1.0588501 v 1.05834 h 0.5291669 v -2.64634 H 3.1760335 v 1.05885 H 2.1171834 v -1.05885 z m 3.902088,0.50798 c 0.4415089,0 0.793232,0.35328 0.7932331,0.79478 -1.1e-6,0.25764 -0.1221211,0.48195 -0.3095422,0.62632 l -0.251147,-0.45269 -0.4630211,0.25787 0.1989543,0.35812 c -0.4263121,-0.0167 -0.7632592,-0.35894 -0.763261,-0.78962 1.8e-6,-0.4415 0.3532748,-0.79478 0.7947839,-0.79478 z"/></g></svg>